<svg id="_0339_idea" xmlns="http://www.w3.org/2000/svg" viewBox="0 0 500 500" data-imageid="creative-process-1-97" imageName="Creative Process 1" class="illustrations_image" style="width: 145px;"><defs><style>.cls-1_creative-process-1-97{opacity:.14;}.cls-1_creative-process-1-97,.cls-2_creative-process-1-97,.cls-3_creative-process-1-97,.cls-4_creative-process-1-97,.cls-5_creative-process-1-97{fill:none;}.cls-6_creative-process-1-97{fill:#fff;}.cls-7_creative-process-1-97{fill:#f4a28c;}.cls-2_creative-process-1-97{opacity:.54;}.cls-8_creative-process-1-97{fill:#e6e6e6;}.cls-3_creative-process-1-97{opacity:.48;}.cls-4_creative-process-1-97{opacity:.09;}.cls-5_creative-process-1-97{opacity:.3;}.cls-9_creative-process-1-97{fill:#24285b;}.cls-10_creative-process-1-97{fill:#000001;}.cls-11_creative-process-1-97{fill:#ffd200;}.cls-12_creative-process-1-97{fill:#68e1fd;}</style></defs><g id="bg_creative-process-1-97" class="cls-5_creative-process-1-97"><path class="cls-8_creative-process-1-97" d="m124.94,194.33c-65.61,12.23-92.89,128.5-45.13,194.41,23.11,31.89,61.93,55.6,126.23,55.82,197.64.67,219.22-45.69,233.86-94.08,14.64-48.39,6.06-133.7-57.03-147.14-47.89-10.2-167.87-25.8-257.94-9.02Z"/></g><g id="bulb_creative-process-1-97"><g class="cls-1_creative-process-1-97"><circle class="cls-11_creative-process-1-97" cx="254.84" cy="98.09" r="76.64"/></g><circle class="cls-11_creative-process-1-97" cx="254.84" cy="98.09" r="41.59"/><g class="cls-1_creative-process-1-97"><circle class="cls-11_creative-process-1-97" cx="254.84" cy="98.09" r="54.19"/></g><rect class="cls-9_creative-process-1-97" x="229.7" y="133.05" width="50.27" height="41.07"/><polygon class="cls-6_creative-process-1-97" points="240.82 132.17 231.78 92.72 248.31 109.04 254.76 89.07 263.09 109.12 275.4 91.71 270.53 132.11 269.33 131.96 273.63 96.29 262.81 111.6 254.91 92.55 248.86 111.28 233.87 96.48 241.99 131.9 240.82 132.17"/><rect class="cls-9_creative-process-1-97" x="240.85" y="174.12" width="25.65" height="12.81"/><g class="cls-3_creative-process-1-97"><rect class="cls-6_creative-process-1-97" x="240.85" y="174.12" width="25.65" height="12.81"/></g></g><g id="person_creative-process-1-97"><path class="cls-7_creative-process-1-97" d="m253.67,248.19s-3.28,23.91-9.15,29.42h31.12s-10.09-10.01-9.15-31.02l-12.83,1.6Z"/><g class="cls-4_creative-process-1-97"><path class="cls-10_creative-process-1-97" d="m253.67,248.19s-3.28,23.91-9.15,29.42h31.12s-10.09-10.01-9.15-31.02l-12.83,1.6Z"/></g><path class="cls-7_creative-process-1-97" d="m245.04,228.79s-1.1,28.72,13.94,30.52c15.04,1.8,11.43-30.93,11.43-30.93,0,0,.83-16.12-8.02-17.71s-20.47-2.43-17.36,18.11Z"/><path class="cls-7_creative-process-1-97" d="m245.24,235.43s-7.83-1.91-7.18,2.05c.64,3.96-.33,9.33,8.44,6.44l-1.26-8.49Z"/><path class="cls-7_creative-process-1-97" d="m270.33,233.42s7.61-2.63,7.34,1.37c-.27,4,1.2,9.26-7.8,7.2l.46-8.57Z"/><path class="cls-7_creative-process-1-97" d="m130.75,343.88s-66.92-16.67-48.95-76.62c17.96-59.95,64.14-106.9,64.14-106.9l19.73,17.07s-49.75,81.42-34.16,102.02c15.59,20.6,60.06-1.74,71.64,26.94,11.58,28.68,1.84,62.43-72.4,37.5Z"/><path class="cls-7_creative-process-1-97" d="m145.93,160.35s26.31-34.87,31.86-29.11c5.55,5.75-9.96,20.81-9.96,20.81,0,0,21.73,11.73-2.17,25.38l-19.73-17.07Z"/><path class="cls-12_creative-process-1-97 targetColor" d="m89.83,326.59l44.16-47.67s11.45,7.16,33.05,6.38,37.3,5.89,41.53,26.16-1.32,86.06-118.74,15.12Z" style="fill: rgb(18, 206, 125);"/><g class="cls-2_creative-process-1-97"><path class="cls-6_creative-process-1-97" d="m89.83,326.59l44.16-47.67s11.45,7.16,33.05,6.38,37.3,5.89,41.53,26.16-1.32,86.06-118.74,15.12Z"/></g><path class="cls-7_creative-process-1-97" d="m376.63,343.88s66.92-16.67,48.95-76.62c-17.96-59.95-64.14-106.9-64.14-106.9l-19.73,17.07s49.75,81.42,34.16,102.02c-15.59,20.6-60.06-1.74-71.64,26.94-11.58,28.68-1.84,62.43,72.4,37.5Z"/><path class="cls-7_creative-process-1-97" d="m361.45,160.35s-26.31-34.87-31.86-29.11c-5.55,5.75,9.96,20.81,9.96,20.81,0,0-21.73,11.73,2.17,25.38l19.73-17.07Z"/><path class="cls-12_creative-process-1-97 targetColor" d="m417.55,326.59l-44.16-47.67s-11.45,7.16-33.05,6.38c-21.61-.78-37.3,5.89-41.53,26.16-4.23,20.26,1.32,86.06,118.74,15.12Z" style="fill: rgb(18, 206, 125);"/><g class="cls-2_creative-process-1-97"><path class="cls-6_creative-process-1-97" d="m417.55,326.59l-44.16-47.67s-11.45,7.16-33.05,6.38c-21.61-.78-37.3,5.89-41.53,26.16-4.23,20.26,1.32,86.06,118.74,15.12Z"/></g><path class="cls-12_creative-process-1-97 targetColor" d="m178.28,399.55c-8.33-17.23-13.33-35.97-13.83-55.1-.04-1.46-.06-2.93-.05-4.39.11-26.57,7.37-60,42.97-61.1,59.33-1.83,133.93-9.17,144.48,29.8,10.55,38.96-27.44,133.5-27.44,133.5l-125.01.98-21.12-43.68Z" style="fill: rgb(18, 206, 125);"/><path class="cls-9_creative-process-1-97" d="m245.24,235.43s3.15-4.43,5.52-14.87c0,0,21.41,5.02,26.91-9.13,0,0-6.37,2.28-13.67-4.34-7.31-6.62-36.53-6.49-22.83,27.57l4.06.76Z"/><path class="cls-9_creative-process-1-97" d="m272.12,218.26s5.45,11.36-1.79,15.17l-3.13-15.17h4.91Z"/><g class="cls-4_creative-process-1-97"><path class="cls-10_creative-process-1-97" d="m166.28,318.81s13.11,87.59,71.74,94.44c58.63,6.85,105.04-26.6,105.04-26.6l-18.65,55.61-125.01.98-22.88-47.47s-18.24-38.98-10.24-76.96Z"/></g><polygon class="cls-9_creative-process-1-97" points="199.4 443.24 207.24 478.55 316.29 478.55 324.41 442.26 199.4 443.24"/><rect class="cls-9_creative-process-1-97" x="137.96" y="168.65" width="29.97" height="10.73" transform="translate(145.97 -57.55) rotate(39.59)"/></g></svg>